<svg width="100" height="100" viewBox="0 0 100 100" fill="none" xmlns="http://www.w3.org/2000/svg">
<circle opacity="0.1" cx="50" cy="50" r="50" fill="#FF6F61"/>
<path fill-rule="evenodd" clip-rule="evenodd" d="M48.5834 25.1087C47.8263 25.2835 46.9494 25.6413 46.2546 26.0586C45.7119 26.3846 44.5467 27.4526 44.2664 27.881C44.126 28.0956 43.9109 28.1304 39.3405 28.6791C36.712 28.9946 34.4836 29.2837 34.3885 29.3216C34.2933 29.3595 34.152 29.5145 34.0743 29.6661C33.9472 29.9142 33.9668 30.2273 34.2708 32.8056C34.4564 34.3807 34.6087 35.7464 34.6091 35.8405C34.6096 35.9774 34.5253 36.0115 34.185 36.0115C33.9231 36.0115 33.6814 36.077 33.5549 36.1825C33.442 36.2766 32.7558 37.3428 32.0303 38.5521L30.7109 40.7507L29.8576 57.3135C29.3882 66.423 29.0024 74.0006 29.0001 74.1525C28.9973 74.3314 29.0955 74.5294 29.2787 74.7144L29.5617 75H50H70.4383L70.7213 74.7144C70.9045 74.5294 71.0027 74.3314 70.9999 74.1525C70.9976 74.0006 70.6118 66.423 70.1424 57.3135L69.2891 40.7507L67.9697 38.5521C67.2442 37.3428 66.558 36.2766 66.4451 36.1825C66.2835 36.0477 66.0558 36.0115 65.3729 36.0115C64.5922 36.0115 64.5111 35.9945 64.5574 35.8405C64.7361 35.245 65.0998 33.4991 65.0998 33.2363C65.0998 32.9908 64.8331 32.512 64.6846 32.4908C64.6734 32.4892 62.9437 32.0809 60.8409 31.5835L57.0175 30.6791L56.8116 30.0347C56.0798 27.7443 54.3154 26.0019 51.9843 25.267C51.1087 24.9911 49.431 24.9129 48.5834 25.1087ZM51.4469 26.8888C52.3675 27.1498 53.1077 27.5967 53.8339 28.3299C54.4239 28.9257 55.0333 29.841 55.0333 30.1314C55.0333 30.1793 54.6086 30.116 54.0895 29.9908C52.3155 29.563 52.2018 29.6315 51.8008 31.3705C51.1771 34.0763 51.2439 33.8951 50.8336 33.993C50.627 34.0424 50.4363 34.0435 50.395 33.9955C50.3547 33.9488 50.178 32.6354 50.0023 31.0768C49.8265 29.5182 49.6248 28.1269 49.554 27.9849C49.3493 27.5747 48.9969 27.5077 47.8553 27.6619C47.3047 27.7363 46.8107 27.7977 46.7574 27.7984C46.5585 27.8009 47.56 27.2349 48.1178 27.0296C49.2488 26.6134 50.3156 26.5682 51.4469 26.8888ZM48.3921 31.7853C48.5404 33.1155 48.6801 34.2726 48.7026 34.3567C48.7364 34.4831 48.0496 34.6779 44.7498 35.4781C41.2193 36.3343 40.7253 36.4771 40.49 36.71C40.3437 36.855 40.2239 37.0562 40.2239 37.1573C40.2239 37.2582 40.3763 37.9676 40.5626 38.7337C40.749 39.4998 40.9014 40.1461 40.9014 40.1699C40.9014 40.1937 39.9915 40.2132 38.8795 40.2132H36.8577L36.8027 39.8957C36.6365 38.9355 35.751 30.9182 35.8051 30.8635C35.8664 30.8016 47.2101 29.3993 47.8271 29.3773L48.1224 29.3668L48.3921 31.7853ZM58.4051 32.75C61.0491 33.3746 63.2272 33.899 63.2455 33.9154C63.2638 33.9317 62.9548 35.3444 62.5588 37.0548L61.8388 40.1644L59.4081 40.1905L56.9775 40.2165L56.88 39.8485C56.8265 39.646 56.4736 38.1832 56.0962 36.5977C55.7186 35.0123 55.3445 33.6142 55.2648 33.4909C55.0195 33.1114 54.7246 33.0635 53.8694 33.2645C52.9805 33.4735 53.0158 33.5163 53.2513 32.5138C53.4503 31.6668 53.467 31.6142 53.5381 31.6142C53.5709 31.6142 55.7611 32.1253 58.4051 32.75ZM54.5609 37.4082C54.8636 38.687 55.1381 39.8412 55.1709 39.9732L55.2305 40.2132H48.9409H42.6511L42.5543 39.8468C42.5011 39.6453 42.3748 39.1198 42.2737 38.6791L42.0898 37.8778L44.9076 37.1881C46.4574 36.8088 49.0538 36.1726 50.6776 35.7744C52.3013 35.3761 53.7154 35.0577 53.8202 35.0667C53.9865 35.0811 54.0801 35.3769 54.5609 37.4082ZM34.9658 38.6997C35.0304 39.2366 35.0855 39.7968 35.0885 39.9445L35.0938 40.2132H34.0775C33.5185 40.2132 33.0611 40.1936 33.0611 40.1695C33.0611 40.1456 33.3921 39.5715 33.7966 38.894C34.7174 37.3516 34.8023 37.3375 34.9658 38.6997ZM66.2065 38.8992C66.6094 39.574 66.9389 40.1456 66.9389 40.1695C66.9389 40.1936 66.1737 40.2132 65.2385 40.2132C63.6647 40.2132 63.5417 40.2005 63.5873 40.0422C63.6144 39.9481 63.7518 39.3766 63.8927 38.7719L64.1487 37.6726H64.8115H65.4743L66.2065 38.8992ZM67.7134 42.2897C67.7135 42.4643 68.0619 49.4449 68.4876 57.802C68.9133 66.1592 69.2616 73.0738 69.2617 73.1678C69.2619 73.3301 68.2802 73.3388 50 73.3388C31.7198 73.3388 30.7381 73.3301 30.7383 73.1678C30.7384 73.0738 31.0867 66.1592 31.5124 57.802C31.9381 49.4449 32.2865 42.4643 32.2866 42.2897L32.2868 41.9721H50H67.7132L67.7134 42.2897ZM42.7405 43.8302C41.4218 44.4509 40.8376 45.941 41.4195 47.1999C41.6492 47.6967 42.2718 48.3511 42.6215 48.4631C42.8044 48.5217 42.8168 48.636 42.8626 50.6962C42.9151 53.0506 42.9932 53.5224 43.52 54.6647C44.498 56.7858 46.3245 58.2535 48.5684 58.7214C52.2415 59.4873 55.8103 57.282 56.881 53.5845C57.0564 52.9784 57.0961 52.5314 57.1372 50.6962C57.1832 48.6361 57.1956 48.5217 57.3785 48.4631C57.6906 48.3631 58.3225 47.733 58.5377 47.3072C59.4056 45.5896 58.0078 43.4845 56.1145 43.6578C54.8606 43.7725 53.9299 44.6864 53.803 45.9272C53.706 46.8767 54.2509 47.9277 55.0715 48.3738L55.4204 48.5635V50.5239C55.4204 52.7355 55.3385 53.2202 54.7843 54.2848C54.1561 55.4916 52.9596 56.4945 51.6288 56.9297C49.2015 57.7235 46.4053 56.5702 45.2157 54.2848C44.6615 53.2202 44.5796 52.7355 44.5796 50.5239V48.5635L44.9285 48.3738C45.4144 48.1096 45.8987 47.5064 46.0888 46.9285C46.4699 45.7699 45.9296 44.4799 44.8215 43.9033C44.2453 43.6033 43.2936 43.5699 42.7405 43.8302ZM44.0899 45.4381C44.3896 45.5945 44.5952 46.0432 44.513 46.3611C44.461 46.5615 44.4608 46.5615 44.2169 46.3678C43.9043 46.1196 43.5111 46.1207 43.1961 46.3709C42.9526 46.5643 42.947 46.5644 42.8888 46.3792C42.7876 46.0574 42.9463 45.6749 43.2614 45.481C43.625 45.2571 43.7327 45.2515 44.0899 45.4381ZM56.6699 45.4364C56.9844 45.6006 57.2092 46.0677 57.1161 46.3636L57.0519 46.5678L56.8039 46.3709C56.5114 46.1386 56.0306 46.1152 55.7422 46.3191C55.5629 46.4458 55.53 46.4461 55.4828 46.3218C55.3918 46.0826 55.6198 45.5911 55.8905 45.4426C56.2176 45.2632 56.3363 45.2623 56.6699 45.4364Z" fill="#151A32"/>
</svg>
