<svg width="100" height="100" viewBox="0 0 100 100" fill="none" xmlns="http://www.w3.org/2000/svg">
<circle opacity="0.1" cx="50" cy="50" r="50" fill="#FF6F61"/>
<path fill-rule="evenodd" clip-rule="evenodd" d="M44.5646 25.181C44.2028 25.4696 44.1922 25.6984 44.5096 26.3768C44.807 27.0128 45.2626 28.3044 45.2626 28.5118C45.2626 28.6018 44.8667 28.6168 43.6 28.5745C41.6599 28.5097 40.536 28.2996 38.9934 27.7134C38.1453 27.3912 37.927 27.342 37.7124 27.4248C37.2454 27.6048 37.1955 27.9066 37.4357 29.098C37.8724 31.2644 38.7144 33.3487 39.796 34.9405L40.3221 35.7149L40.0023 35.7675C38.8844 35.9513 38.0324 36.9718 38.0352 38.1232C38.0372 38.9909 38.7416 39.9518 39.5816 40.2329C39.7907 40.3028 39.9609 40.386 39.9598 40.4177C39.9532 40.6152 38.4878 42.4828 36.8702 44.3554C33.9554 47.7297 33.1031 48.8889 32.072 50.8816C30.5858 53.7544 29.9879 56.306 30.0002 59.7246C30.0073 61.7289 30.1475 62.6947 30.6663 64.317C32.4419 69.8689 37.9226 73.7766 45.3343 74.7754C49.4251 75.3266 53.9783 74.8497 57.5722 73.4936C63.2013 71.3696 66.6621 67.4516 67.5771 62.1674C67.6742 61.606 67.7296 60.7048 67.7302 59.6757C67.7324 55.6917 66.7087 52.2941 64.4932 48.9322C63.667 47.6784 63.1326 47.0049 61.2025 44.785C59.7166 43.0761 58.5729 41.6901 58.5665 41.5906C58.5644 41.5591 60.0266 41.8775 61.8156 42.2979C67.9007 43.7281 67.7162 43.694 68.3449 43.5087C70.4478 42.8889 70.5829 39.9299 68.5429 39.1697C68.2751 39.0699 67.4067 38.8415 66.6131 38.6619L65.17 38.3355L66.1142 38.0375C67.1913 37.6975 67.6833 37.3443 67.9979 36.6856C68.2561 36.1445 68.2666 35.2577 68.0209 34.7094C67.6609 33.906 66.6763 33.3262 65.817 33.4117C65.5643 33.4368 63.8482 33.8854 62.0036 34.4086L58.6497 35.3598L58.2802 34.9376L57.9107 34.5154L58.5281 33.2661C60.4085 29.4615 61.4555 26.3632 61.1554 25.4905C60.9797 24.9797 60.7462 24.9371 59.4133 25.1733C57.4156 25.5272 56.0913 25.6677 54.1294 25.7338C51.6007 25.8189 48.0745 25.5615 45.8461 25.1293C44.9117 24.948 44.8539 24.9503 44.5646 25.181ZM59.623 26.6799C59.623 26.6969 59.4755 27.1696 59.2952 27.7304C58.8576 29.0914 58.1084 30.8657 57.2201 32.6449L56.4907 34.1058L55.9632 34.2874C55.3918 34.484 54.792 35.0009 54.6056 35.457L54.4915 35.7363H53.459H52.4264L51.9865 34.7347C51.0325 32.5628 50.5204 30.8718 50.4108 29.5316C50.3018 28.1981 50.0929 28.0224 48.8926 28.2552C48.4795 28.3353 47.8274 28.4298 47.4434 28.465L46.7453 28.5291L46.5315 27.6731C46.4139 27.2023 46.3366 26.7979 46.3597 26.7744C46.3829 26.751 46.937 26.7996 47.5911 26.8826C51.3789 27.3632 55.0273 27.3526 58.2331 26.8516C59.5363 26.6479 59.623 26.6372 59.623 26.6799ZM41.75 29.9293C43.262 30.1618 46.0982 30.1608 47.71 29.9272C48.9484 29.7477 49.0167 29.7643 49.0199 30.2456C49.0247 30.9843 50.0185 34.0709 50.6652 35.3562L50.8565 35.7363H46.5263H42.1961L41.702 35.0988C40.3918 33.4087 39.433 31.4241 39.0513 29.6124L38.9859 29.3024L39.7923 29.5274C40.2358 29.6511 41.1168 29.8319 41.75 29.9293ZM66.5863 35.1578C66.679 35.2729 66.755 35.5113 66.755 35.6874C66.755 36.2887 66.5831 36.384 64.3448 37.0237L62.2734 37.6158L61.5016 37.4602C60.1718 37.1922 58.9405 36.8841 58.9917 36.8323C59.0187 36.805 60.5488 36.3505 62.3918 35.8225C65.9251 34.8103 66.2629 34.7567 66.5863 35.1578ZM57.0138 35.7815C57.1639 35.8602 57.3134 35.9956 57.3464 36.0827C57.3793 36.1696 57.4063 37.0808 57.4063 38.1075C57.4063 39.8895 57.3967 39.9844 57.1967 40.2004C56.899 40.5215 56.36 40.5092 56.0496 40.1742C55.8191 39.9252 55.816 39.8973 55.816 38.0395C55.816 36.0452 55.8425 35.9173 56.2945 35.7316C56.5819 35.6135 56.7103 35.6224 57.0138 35.7815ZM54.3221 38.0293V38.8566L50.477 38.8843C46.8523 38.9104 46.6203 38.9226 46.4291 39.0981C46.1645 39.341 46.1594 39.87 46.4191 40.1333C46.6055 40.3223 46.7403 40.3287 50.5008 40.3287H54.3897L54.685 40.8104C55.1 41.4872 55.6386 41.8253 56.3815 41.8752L56.9726 41.915L57.5203 42.6608C57.8215 43.071 58.8141 44.2641 59.7261 45.3121C62.5693 48.5793 63.4346 49.7637 64.4355 51.759C65.6979 54.2757 66.2809 56.7449 66.2815 59.578C66.282 62.5395 65.611 64.7988 64.0757 67.0041C59.484 73.6001 47.0495 75.613 38.5161 71.1419C32.8122 68.1534 30.4231 62.7878 31.779 56.0115C32.1925 53.9452 33.1569 51.672 34.4412 49.7362C35.2263 48.5527 35.8558 47.76 37.6443 45.7024C40.0521 42.9324 40.4596 42.41 41.2186 41.1209L41.6564 40.3776L42.7244 40.3501C43.6461 40.3263 43.8162 40.296 43.9653 40.129C44.2034 39.8623 44.1853 39.3886 43.9269 39.1263C43.7262 38.9227 43.6218 38.9105 41.8509 38.8818C40.1525 38.8544 39.9679 38.8345 39.7823 38.6592C39.3644 38.2645 39.4556 37.5879 39.9618 37.3284C40.1494 37.2322 41.765 37.2045 47.2624 37.2034L54.3221 37.202V38.0293ZM63.4781 39.4477C65.837 39.9899 67.9089 40.4976 68.0824 40.576C68.3937 40.7167 68.5862 41.0371 68.5862 41.4144C68.5862 41.7223 68.1585 42.0873 67.7954 42.0894C67.6207 42.0904 65.5329 41.6407 63.1558 41.09L58.8338 40.0888L58.89 39.7446C58.9209 39.5554 58.9467 39.1711 58.9473 38.8905C58.948 38.5265 58.9827 38.3923 59.0688 38.4212C59.1351 38.4436 61.1192 38.9055 63.4781 39.4477ZM48.1057 43.79C47.9467 43.8622 47.7188 44.0164 47.5992 44.1326C47.1275 44.5906 47.0474 44.8236 46.9974 45.8848L46.9492 46.9064L46.4444 47.0801C45.1059 47.5403 43.8293 48.5664 43.1652 49.7157C41.7503 52.1646 42.1428 55.1735 44.1343 57.1428C45.3916 58.3861 46.7796 58.8889 48.9731 58.8954C50.0726 58.8987 50.5069 59.0465 51.017 59.5909C51.8355 60.4641 51.8078 61.7249 50.9507 62.6217C50.3775 63.2215 50.0133 63.3142 48.3885 63.274C47.2686 63.2462 47.0728 63.2164 46.8354 63.0378C46.4004 62.7106 46.1581 62.2651 46.0844 61.6571C45.998 60.9448 45.721 60.4375 45.2297 60.0924C44.9039 59.8634 44.7475 59.8223 44.2036 59.8223C43.6648 59.8223 43.4976 59.8654 43.1612 60.0911C42.5695 60.4881 42.3261 61.0247 42.3453 61.8901C42.3801 63.4527 43.0404 64.8104 44.2723 65.8524C44.7804 66.2821 45.8957 66.9057 46.1584 66.907C46.2223 66.9073 46.4372 66.9533 46.636 67.0093L46.9974 67.111V67.9401C46.9974 69.1451 47.2443 69.6622 48.0084 70.0575C48.4728 70.2978 49.2433 70.32 49.65 70.1047C49.9761 69.9322 50.3818 69.5142 50.5731 69.1538C50.6444 69.0194 50.7256 68.4716 50.7535 67.9363L50.8043 66.9631L51.2103 66.8444C52.6055 66.436 53.9906 65.2667 54.6801 63.9151C56.1179 61.0966 55.2806 57.7598 52.7071 56.0516C51.5837 55.3057 50.3197 54.9924 48.4159 54.9873C47.3762 54.9846 46.687 54.5837 46.3127 53.7641C46.0807 53.2562 46.0803 52.4187 46.3118 51.9021C46.5638 51.3396 47.2031 50.8168 47.805 50.6808C48.0788 50.619 48.7951 50.5846 49.4144 50.6034C50.4151 50.6338 50.5669 50.6626 50.8856 50.8816C51.4387 51.2619 51.6232 51.7505 51.6257 52.8423C51.6281 53.8841 51.7832 54.3539 52.2816 54.8285C53.1309 55.6373 54.6681 55.3446 55.1779 54.2771C55.3508 53.9151 55.3823 53.6712 55.3823 52.697C55.3823 51.9631 55.3269 51.3271 55.2295 50.9446C55.0347 50.179 54.5036 49.1507 54.0085 48.5804C53.3356 47.8054 52.0626 47.0623 51.1558 46.9152L50.7561 46.8504V46.0293C50.7561 44.8343 50.4674 44.2485 49.6757 43.8369C49.2584 43.6199 48.5281 43.5981 48.1057 43.79ZM49.2107 45.3056C49.2656 45.4096 49.3105 45.9983 49.3105 46.6139C49.3105 48.0541 49.3533 48.1172 50.4499 48.2951C52.6911 48.659 53.9366 50.2078 53.9366 52.6312C53.9366 53.6274 53.8686 53.813 53.5029 53.813C53.1416 53.813 53.0692 53.6252 53.0692 52.6876C53.0692 51.059 52.5758 50.1274 51.3882 49.5137L50.7264 49.1717H49.0788C47.4381 49.1717 47.4284 49.173 46.8043 49.4728C46.034 49.843 45.3137 50.5539 44.9812 51.2723C44.7632 51.7434 44.7325 51.9369 44.7325 52.8359C44.7325 53.7728 44.7563 53.9085 45.0071 54.3993C45.7898 55.9315 47.009 56.5463 49.2688 56.5482C50.6817 56.5494 51.7265 56.9685 52.6224 57.8936C53.2148 58.5051 53.5348 59.0748 53.7571 59.9134C54.4334 62.465 52.9067 64.9557 50.2908 65.5683C49.3375 65.7917 49.3105 65.8391 49.3105 67.2929C49.3105 68.6308 49.2656 68.7629 48.8111 68.7629C48.4788 68.7629 48.4568 68.6762 48.4216 67.2264C48.3888 65.8804 48.3099 65.7608 47.3726 65.637C46.2513 65.4889 45.5119 65.1119 44.7961 64.3235C43.819 63.247 43.4283 61.2391 44.1961 61.2391C44.4586 61.2391 44.5851 61.4521 44.6824 62.0575C44.86 63.164 45.4306 63.9714 46.3836 64.4649C46.832 64.6971 46.9297 64.7079 48.5876 64.7079H50.3224L50.9489 64.4055C51.7458 64.0209 52.3444 63.4136 52.7216 62.6071C52.9845 62.0449 53.0187 61.8709 53.0198 61.0925C53.0208 60.3415 52.9834 60.1316 52.7629 59.6549C52.4131 58.8981 52.0565 58.4617 51.4548 58.0539C50.7568 57.5809 50.2419 57.4564 48.7322 57.3956C47.3021 57.3382 46.6411 57.1676 45.8487 56.6514C43.921 55.3959 43.2304 52.7845 44.2816 50.726C44.9094 49.4966 46.0871 48.6095 47.4508 48.3385C48.3399 48.1619 48.3885 48.0754 48.4273 46.5968C48.4451 45.9171 48.5046 45.306 48.5596 45.2388C48.7114 45.053 49.0983 45.0928 49.2107 45.3056Z" fill="#151A32"/>
</svg>
