<svg width="70" height="70" viewBox="0 0 70 70" fill="none" xmlns="http://www.w3.org/2000/svg">
<circle cx="35" cy="35" r="35" fill="#FF6F61"/>
<path fill-rule="evenodd" clip-rule="evenodd" d="M43.3212 15.1276C42.9198 15.2689 42.468 15.6918 42.2497 16.1305C42.1041 16.4232 42.0954 16.6152 42.0954 19.5288C42.0954 22.5456 42.0994 22.6241 42.265 22.9296C42.3584 23.1016 42.5525 23.3549 42.6965 23.4924C43.143 23.9189 43.4654 24.0096 44.6688 24.0473L45.7517 24.0812L45.7092 24.2872C45.5689 24.9669 45.1109 27.7617 45.1309 27.8163C45.1441 27.8523 46.5316 27.0232 48.2143 25.9735L51.2738 24.0652L52.1917 24.0642C52.6965 24.0637 53.2893 24.0248 53.509 23.9778C54.052 23.8618 54.5197 23.4934 54.7843 22.9737L55 22.5497L54.9983 19.4952C54.9967 16.7016 54.9842 16.4137 54.8527 16.1249C54.6713 15.7272 54.0844 15.2065 53.6815 15.0863C53.4589 15.0198 52.0291 14.9961 48.519 15.0005C44.3508 15.0058 43.6158 15.0237 43.3212 15.1276ZM53.5523 16.5153L53.7448 16.7072V19.4522C53.7448 22.2528 53.7296 22.4107 53.4379 22.6339C53.3532 22.6987 52.939 22.73 52.1424 22.7316L50.9714 22.7341L48.9429 23.9953C47.8273 24.689 46.9019 25.2431 46.8864 25.2267C46.8711 25.2102 46.9558 24.6427 47.0749 23.9655L47.2912 22.7341H45.5331H43.7749L43.5824 22.5422L43.3898 22.3504V19.5178C43.3898 16.7172 43.3917 16.6833 43.5604 16.5043L43.731 16.3234H48.5454H53.3597L53.5523 16.5153ZM33.2309 16.9987C32.423 17.0843 30.9068 17.3721 30.1555 17.5823C27.0856 18.4414 24.4047 19.9992 22.1662 22.2246C19.9415 24.4363 18.4022 27.0212 17.5498 29.9765L17.2873 30.8866L16.7163 29.935C16.4023 29.4116 16.1149 28.9647 16.0777 28.9418C16.0267 28.9103 15.2247 29.3318 15.0002 29.5079C14.977 29.5262 16.7483 32.5265 17.1801 33.2004C17.2339 33.2843 17.6608 33.0624 19.1211 32.1914C20.1507 31.5773 21.004 31.0666 21.0172 31.0566C21.0345 31.0434 20.4673 30.0672 20.3755 29.9523C20.3695 29.945 19.9943 30.1637 19.5415 30.4384C19.0887 30.7132 18.6944 30.9392 18.6654 30.9405C18.5812 30.9445 18.9002 29.8854 19.2668 28.9443C21.2402 23.8777 25.5015 20.1118 30.8073 18.7453C33.4251 18.0712 36.45 18.0706 39.0952 18.7438L39.9388 18.9584L40.1273 18.364C40.2653 17.929 40.2911 17.7557 40.2237 17.7174C40.0573 17.6229 38.8652 17.3415 37.9221 17.1742C37.2088 17.0477 36.6003 17.0048 35.2705 16.9877C34.3213 16.9754 33.4035 16.9804 33.2309 16.9987ZM44.6614 18.2193L44.6842 18.8642L48.5477 18.8845L52.4112 18.9048V18.2395V17.5743H48.525H44.6386L44.6614 18.2193ZM44.6614 20.7992L44.6842 21.4442L47.2533 21.4648L49.8225 21.4854V20.8198V20.1542H47.2306H44.6386L44.6614 20.7992ZM51.1561 20.8187V21.4833H51.7837H52.4112V20.8187V20.1542H51.7837H51.1561V20.8187ZM33.7016 21.5345C32.0969 21.7899 30.4281 22.5969 29.2133 23.7048C28.1292 24.6936 27.1963 26.2591 26.7792 27.7895L26.5695 28.5585L26.5663 31.7639L26.5629 34.9693L26.7669 35.4028C27.0635 36.033 27.408 36.3812 28.0332 36.6826L28.5837 36.948L28.8013 37.6221C28.9209 37.9929 29.1723 38.5665 29.3598 38.8966C29.7408 39.5674 30.7286 40.6188 31.3284 40.9919C31.5875 41.1531 31.7009 41.2755 31.701 41.394C31.7012 41.5899 31.8933 41.5421 28.9419 42.0802C27.8773 42.2743 26.8132 42.5052 26.5771 42.5932C25.3217 43.0613 24.367 44.0556 23.8885 45.3933C23.7706 45.7229 23.6518 46.0189 23.6244 46.051C23.5969 46.083 23.0555 45.5879 22.4211 44.9506C20.863 43.3853 20.8489 43.6082 22.6192 41.8334L23.9707 40.4785L21.5798 38.0928L19.1888 35.7073L17.4561 37.4491C15.9948 38.9181 15.6848 39.2705 15.4766 39.6991C15.0908 40.4936 14.9698 41.09 15.0095 42.0007C15.0475 42.8724 15.213 43.4363 15.6335 44.1279C15.7979 44.3982 17.5821 46.2267 20.7924 49.4148C25.3752 53.9661 25.7358 54.3056 26.2417 54.545C27.6513 55.2119 29.3682 55.1407 30.6042 54.3641C30.8172 54.2302 31.8028 53.3825 32.7945 52.4803L34.5975 50.8397L34.1126 50.3511L33.6277 49.8625H40.5484C44.3547 49.8625 47.4691 49.8354 47.4691 49.8024C47.4691 49.5928 45.8683 45.0161 45.6536 44.6122C45.3209 43.9857 44.5119 43.1742 43.8997 42.8528C43.251 42.5122 42.8572 42.4109 40.6049 42.0061C37.9988 41.5375 38.2114 41.5921 38.2172 41.3934C38.2207 41.2747 38.4008 41.0942 38.8159 40.7936C39.1424 40.5572 39.5649 40.1826 39.7548 39.9613L40.1001 39.5591L41.0193 39.5282C41.7618 39.5033 41.9991 39.4656 42.2533 39.3325C42.6515 39.124 42.9665 38.8111 43.182 38.4102C43.349 38.0993 43.3506 38.0539 43.3506 33.4838C43.3506 29.3405 43.3362 28.805 43.2098 28.2206C42.512 24.9967 40.2093 22.5671 37.0385 21.7094C36.5883 21.5876 36.1478 21.5431 35.1921 21.5232C34.5017 21.5088 33.831 21.5139 33.7016 21.5345ZM36.1174 22.8508C38.6836 23.2968 40.8392 25.1113 41.6701 27.5248C41.9869 28.4449 42.055 28.9953 42.0556 30.6436L42.0562 32.1031L41.7424 31.9803C41.4364 31.8605 41.4286 31.848 41.4286 31.4784V31.0994H40.6801C38.7752 31.0994 36.9796 30.3226 35.551 28.8808L34.9687 28.2929L34.2839 28.9424C32.7264 30.4196 31.1346 31.0994 29.2334 31.0994H28.4848V31.4784C28.4848 31.8494 28.4781 31.8601 28.1638 31.9831L27.8427 32.1088L27.8784 30.2946C27.9184 28.2715 27.9656 28.0088 28.4898 26.8899C29.4333 24.8758 31.275 23.3805 33.3544 22.9403C34.4762 22.7029 35.1419 22.6813 36.1174 22.8508ZM50.8122 27.2086C50.7495 27.3061 50.2375 28.1513 49.6745 29.0869L48.651 30.7879L48.9818 30.9913C49.1637 31.1033 49.3908 31.2437 49.4863 31.3034C49.5819 31.3632 49.6887 31.4121 49.7236 31.4121C49.7586 31.4121 50.0304 31.0047 50.3277 30.5068C50.6849 29.9084 50.8879 29.6367 50.9262 29.7054C50.9582 29.7626 51.0752 30.1436 51.1864 30.5521C52.5188 35.448 51.5672 40.7086 48.6059 44.8179C48.3588 45.1608 48.1411 45.4818 48.1221 45.5311C48.0918 45.6097 48.9237 46.3423 49.045 46.3439C49.139 46.345 50.0104 45.104 50.5445 44.2081C52.2227 41.3935 53.0583 38.3393 53.0613 35.0083C53.063 33.2097 52.8071 31.3927 52.3353 29.8526C52.2503 29.5752 52.1903 29.339 52.2019 29.3275C52.2198 29.3095 52.9053 29.7056 53.7983 30.2498L54.048 30.4019L54.3776 29.849C54.5588 29.5449 54.6937 29.2832 54.6771 29.2675C54.6391 29.2313 51.2819 27.2211 51.0773 27.112C50.9549 27.0468 50.9044 27.0652 50.8122 27.2086ZM35.5024 30.5741C36.5232 31.4132 38.0004 32.0791 39.2713 32.2732C39.6165 32.3258 39.9431 32.3813 39.997 32.3962C40.0721 32.4172 40.0948 32.8847 40.0938 34.4C40.0926 36.5248 40.0418 36.9277 39.6701 37.763L39.4705 38.2113L37.2136 38.2321L34.9567 38.2528V38.8782V39.5037L36.6433 39.5428L38.33 39.5819L37.9594 39.8383C37.4034 40.223 36.6797 40.5403 36.0297 40.6845C35.2524 40.8568 34.0547 40.8033 33.3486 40.5646C31.7588 40.0272 30.5376 38.785 29.9999 37.1583C29.8031 36.5629 29.7915 36.4357 29.7579 34.5101C29.7193 32.2979 29.7084 32.3538 30.181 32.3514C30.559 32.3496 31.8399 32.0039 32.4891 31.7286C33.0925 31.4727 34.4508 30.6164 34.7139 30.3261C34.7962 30.2354 34.8941 30.1612 34.9318 30.1612C34.9694 30.1612 35.2262 30.347 35.5024 30.5741ZM28.4848 34.3965V35.5047L28.2813 35.3151C28.1693 35.2109 28.0281 35.0306 27.9675 34.9145C27.8351 34.661 27.8229 34.0481 27.9455 33.8109C28.0575 33.5943 28.3352 33.2884 28.42 33.2884C28.4557 33.2884 28.4848 33.787 28.4848 34.3965ZM41.9124 33.7615C42.1869 34.2715 42.0726 34.9051 41.6322 35.3151L41.4286 35.5047V34.387V33.2693L41.5986 33.3818C41.6921 33.4437 41.8333 33.6146 41.9124 33.7615ZM42.0562 37.24C42.0562 37.7621 42.0341 37.852 41.8636 38.0218C41.7119 38.1731 41.5901 38.2137 41.2889 38.2137H40.9068L41.0872 37.686C41.1865 37.3958 41.2686 37.1044 41.2697 37.0386C41.2713 36.9412 41.7299 36.7023 41.9974 36.6595C42.0298 36.6543 42.0562 36.9155 42.0562 37.24ZM21.8153 40.8322L21.462 41.1843L19.9744 39.7002L18.4869 38.2162L18.8361 37.8617L19.1853 37.507L20.6769 38.9936L22.1686 40.4801L21.8153 40.8322ZM20.2936 42.3941C19.8905 42.9861 19.8385 43.749 20.1593 44.365C20.3945 44.8167 25.391 49.7465 25.775 49.9057C26.3788 50.1561 27.3181 50.0226 27.7414 49.6263C27.9017 49.4762 27.9068 49.4803 29.3898 50.9639L30.8775 52.452L30.4671 52.8318C30.2414 53.0406 29.8531 53.3111 29.6042 53.4328C29.1866 53.6371 29.0818 53.6541 28.2495 53.6535C26.7734 53.6523 27.1898 53.9801 21.6045 48.4237C16.3742 43.2207 16.5125 43.3812 16.3065 42.2769C16.1341 41.3528 16.4561 40.3276 17.1658 39.541L17.5282 39.1392L19.0121 40.6181L20.4961 42.0969L20.2936 42.3941ZM34.996 42.07C35.6305 42.067 36.1287 42.0225 36.4079 41.9441C36.6452 41.8774 36.8469 41.8305 36.8563 41.8398C36.8657 41.8491 36.4416 42.286 35.9139 42.8106L34.9545 43.7646L33.9842 42.7954L33.0141 41.8262L33.5147 41.9504C33.8459 42.0326 34.3472 42.0731 34.996 42.07ZM33.5243 44.2132L34.9175 45.6001L36.3225 44.2014L37.7276 42.8029L40.186 43.2463C42.1769 43.6054 42.7361 43.7341 43.1259 43.923C43.6591 44.1816 44.1418 44.6088 44.4496 45.0948C44.6195 45.3629 45.6648 48.2642 45.6648 48.4675C45.6648 48.5037 42.6549 48.5334 38.9762 48.5334H32.2876L31.0736 47.3216C30.4059 46.6552 29.8289 46.1099 29.7913 46.1099C29.7538 46.1099 29.2238 46.5614 28.6136 47.1135C26.8392 48.7185 26.7763 48.768 26.5075 48.768C26.3064 48.768 26.1299 48.635 25.461 47.979L24.6565 47.19L24.9603 46.2889C25.3046 45.2674 25.6123 44.7386 26.0882 44.3499C26.694 43.8552 27.1413 43.7151 29.5465 43.2666C30.7963 43.0336 31.8891 42.8392 31.975 42.8347C32.0785 42.8291 32.6003 43.2934 33.5243 44.2132ZM32.3098 51.1716L31.9003 51.5849L30.4083 50.0937L28.9163 48.6025L29.3406 48.2098L29.7649 47.8171L31.2421 49.2877L32.7193 50.7584L32.3098 51.1716Z" fill="white"/>
</svg>
