<svg width="100" height="100" viewBox="0 0 100 100" fill="none" xmlns="http://www.w3.org/2000/svg">
<circle cx="50" cy="50" r="50" fill="#F1F3F4"/>
<path fill-rule="evenodd" clip-rule="evenodd" d="M42.75 26.1369C42.2343 26.3008 41.3548 27.2194 41.1967 27.7592C41.0997 28.0905 41.0689 31.0896 41.0689 40.2238V52.2523L39.992 52.8609C39.3997 53.1956 38.2155 53.9646 37.3604 54.5699C36.5054 55.1751 35.7704 55.6703 35.7272 55.6703C35.6839 55.6703 35.4026 55.3136 35.1021 54.8776C34.5215 54.0354 34.2209 53.8527 33.7623 54.0635C33.5239 54.173 26.7168 58.9421 25.5451 59.8204C24.5889 60.5372 24.3522 60.0772 29.4728 67.4506C34.0842 74.0908 34.1067 74.1188 34.686 73.9625C35.056 73.8627 43.3032 67.9945 43.4511 67.7258C43.6481 67.368 43.6215 67.2059 43.276 66.6563L42.9613 66.156L43.4306 65.8558C44.871 64.9345 46.8257 64.6888 49.3326 65.1138C51.3037 65.4479 53.0154 65.4324 54.4126 65.0674C55.6339 64.7483 72.6516 58.5181 73.3583 58.1313C74.3838 57.5698 74.9141 56.6769 74.9839 55.3935C75.0256 54.6262 74.9997 54.4642 74.7421 53.8851C74.4458 53.2193 73.6748 52.372 73.238 52.2321L73.0096 52.1589V40.1772C73.0096 31.0796 72.9788 28.0904 72.8818 27.7592C72.7113 27.1771 71.8409 26.2992 71.2638 26.1272C70.6739 25.9514 43.3041 25.9608 42.75 26.1369ZM52.8365 29.3895V31.085H47.7933H42.75V29.6496C42.75 28.2668 42.7595 28.2046 43.0079 27.9541L43.2658 27.6939H48.0512H52.8365V29.3895ZM59.5609 31.3171V34.9402L58.4729 33.8604C57.5379 32.9324 57.3363 32.7805 57.0393 32.7805C56.7422 32.7805 56.5406 32.9324 55.6056 33.8604L54.5176 34.9402V31.3171V27.6939H57.0393H59.5609V31.3171ZM71.0706 27.9541C71.3191 28.2046 71.3285 28.2668 71.3285 29.6496V31.085H66.2852H61.242V29.3895V27.6939H66.0273H70.8127L71.0706 27.9541ZM52.8365 35.0637C52.8365 37.3466 52.8365 37.3469 53.0945 37.607C53.2614 37.7754 53.4716 37.8672 53.6904 37.8672C53.9847 37.8672 54.2239 37.6718 55.5339 36.3618L57.0393 34.8564L58.5446 36.3618C59.8547 37.6718 60.0938 37.8672 60.3881 37.8672C60.6069 37.8672 60.8171 37.7754 60.984 37.607C61.242 37.3469 61.242 37.3466 61.242 35.0637V32.7805H66.2852H71.3285V42.3096V51.8385L70.987 51.9132C70.7992 51.9542 69.96 52.2438 69.1221 52.5568L67.5986 53.1256L64.6208 53.1264C61.8329 53.127 61.6263 53.1139 61.3839 52.9216C60.9477 52.5754 60.2891 52.421 55.9886 51.656C50.3019 50.6445 50.3685 50.6533 48.4762 50.6619C46.6403 50.6702 45.0384 50.8991 43.5643 51.3637L42.75 51.6204V42.2004V32.7805H47.7933H52.8365V35.0637ZM49.9472 52.3833C51.37 52.5145 59.9391 54.0534 60.3027 54.243C60.9423 54.5766 61.3178 55.4165 61.1344 56.1035C60.9184 56.9126 60.2915 57.3919 59.468 57.3775C59.2012 57.3728 56.9991 57.0127 54.5744 56.5773C52.1496 56.1418 50.154 55.7971 50.1399 55.8115C50.0834 55.8684 49.8662 57.3725 49.9083 57.4149C50.0313 57.539 59.0645 59.087 59.6394 59.0825C60.8297 59.073 61.8899 58.4036 62.4783 57.2901L62.8023 56.6769L67.111 55.0993C70.8863 53.7169 71.4777 53.5283 71.8898 53.5751C73.2998 53.7355 73.8403 55.4949 72.7832 56.4836C72.481 56.7663 55.057 63.187 53.8347 63.4662C52.7012 63.7251 51.1237 63.7087 49.5152 63.4215C46.7323 62.9246 44.5323 63.2388 42.5489 64.4166L41.9747 64.7575L39.368 61.0016C37.9342 58.9358 36.7611 57.2035 36.7611 57.152C36.7611 57.0255 39.6344 55.0077 40.6275 54.4369C42.5493 53.3323 44.91 52.5912 47.1463 52.3905C48.4342 52.2748 48.7622 52.2739 49.9472 52.3833ZM37.6709 61.5229C39.7421 64.5086 41.4367 67.0091 41.4367 67.0796C41.4367 67.1499 40.2783 68.0274 38.8625 69.0293C37.4467 70.0313 35.9247 71.1085 35.4803 71.4232L34.6724 71.9956L30.8783 66.5191C28.7915 63.5071 27.0748 60.9965 27.0632 60.94C27.0406 60.8288 33.5829 56.121 33.7834 56.1044C33.8504 56.0987 35.5998 58.537 37.6709 61.5229Z" fill="#FF6F61"/>
</svg>
