<svg width="100" height="100" viewBox="0 0 100 100" fill="none" xmlns="http://www.w3.org/2000/svg">
<circle opacity="0.1" cx="50" cy="50" r="50" fill="#FF6F61"/>
<path fill-rule="evenodd" clip-rule="evenodd" d="M36.6667 25.1344C36.1554 25.2956 35.2834 26.1985 35.1267 26.7292C34.9475 27.3357 34.9475 35.9947 35.1267 36.6012C35.2957 37.1734 36.1586 38.0363 36.7308 38.2054C37.0096 38.2877 37.9482 38.3321 39.4131 38.3321H41.6667V39.1654V39.9988H36.139C32.8007 39.9988 30.5372 40.0385 30.4242 40.0989C30.3212 40.154 29.2408 41.7947 28.0233 43.7449L25.8097 47.2906L25.8502 48.7231C25.8882 50.0689 25.9104 50.1974 26.2177 50.8513C26.6595 51.7913 27.2616 52.4177 28.1512 52.8628C28.5532 53.0638 28.9461 53.2284 29.0244 53.2284C29.1434 53.2284 29.1667 54.5963 29.1667 61.6141V69.9998H28.1631C26.8323 69.9998 26.4216 70.1338 25.7777 70.7776C25.1195 71.4358 25 71.8271 25 73.324C25 74.4216 25.0147 74.5033 25.2557 74.7443L25.5114 75H50H74.4886L74.7443 74.7443C74.9853 74.5033 75 74.4216 75 73.324C75 71.8271 74.8805 71.4358 74.2223 70.7776C73.5784 70.1338 73.1677 69.9998 71.8369 69.9998H70.8333V61.6141C70.8333 54.5963 70.8566 53.2284 70.9756 53.2284C71.0539 53.2284 71.4468 53.0638 71.8487 52.8628C72.7384 52.4177 73.3405 51.7913 73.7823 50.8513C74.0896 50.1974 74.1118 50.0689 74.1498 48.7231L74.1903 47.2906L71.9767 43.7449C70.7592 41.7947 69.6787 40.154 69.5758 40.0989C69.4628 40.0385 67.1993 39.9988 63.861 39.9988H58.3333V39.1654V38.3321H60.5869C62.0518 38.3321 62.9904 38.2877 63.2692 38.2054C63.8414 38.0363 64.7043 37.1734 64.8733 36.6012C65.0525 35.9947 65.0525 27.3357 64.8733 26.7292C64.7043 26.157 63.8414 25.294 63.2692 25.125C62.6848 24.9524 37.2157 24.9614 36.6667 25.1344ZM63.0776 26.9208L63.3333 27.1764V31.6652V36.154L63.0776 36.4096L62.822 36.6654H50H37.178L36.9224 36.4096L36.6667 36.154V31.6652V27.1764L36.9224 26.9208L37.178 26.665H50H62.822L63.0776 26.9208ZM40.8333 27.6345C40.3221 27.7957 39.4501 28.6986 39.2933 29.2293C39.0048 30.206 39.2082 30.9846 39.9444 31.7208C40.4816 32.2579 41.0115 32.4986 41.6574 32.4986C42.0952 32.4986 42.5 32.899 42.5 33.3319C42.5 33.7602 42.0949 34.1653 41.6667 34.1653C41.2384 34.1653 40.8333 33.7602 40.8333 33.3319C40.8333 32.6037 39.9391 32.2375 39.4224 32.7543C38.9252 33.2514 39.1554 34.2652 39.9444 35.0543C40.4887 35.5987 41.0114 35.832 41.6863 35.832C42.9744 35.832 44.1667 34.6303 44.1667 33.3319C44.1667 32.0381 42.9744 30.8318 41.6954 30.8318C40.9391 30.8318 40.56 29.9498 41.0891 29.4208C41.6057 28.9041 42.5 29.2702 42.5 29.9985C42.5 30.7267 43.3943 31.0929 43.9109 30.5761C44.4081 30.079 44.1779 29.0652 43.389 28.2761C42.6559 27.5432 41.8028 27.329 40.8333 27.6345ZM45.2557 27.7541L45 28.0098V31.6652V35.3206L45.2557 35.5763C45.594 35.9146 46.0727 35.9146 46.4109 35.5763C46.6573 35.33 46.6667 35.2689 46.6667 33.9095V32.4986H47.5H48.3333V33.9095C48.3333 35.2689 48.3427 35.33 48.5891 35.5763C48.7502 35.7375 48.9637 35.832 49.1667 35.832C49.3696 35.832 49.5831 35.7375 49.7443 35.5763L50 35.3206V31.6652V28.0098L49.7443 27.7541C49.406 27.4158 48.9273 27.4158 48.5891 27.7541C48.3427 28.0004 48.3333 28.0615 48.3333 29.4208V30.8318H47.5H46.6667V29.4208C46.6667 28.0615 46.6573 28.0004 46.4109 27.7541C46.2498 27.5929 46.0362 27.4984 45.8333 27.4984C45.6304 27.4984 45.4169 27.5929 45.2557 27.7541ZM52.5 27.6345C51.9887 27.7957 51.1168 28.6986 50.96 29.2293C50.8798 29.5008 50.8333 30.3938 50.8333 31.6652C50.8333 34.0721 50.8942 34.3374 51.611 35.0543C52.3745 35.8177 53.1893 36.0104 54.199 35.6664C54.7882 35.4655 55.528 34.6914 55.7095 34.0857C55.7866 33.8284 55.8333 32.9146 55.8333 31.6652C55.8333 30.4158 55.7866 29.502 55.7095 29.2447C55.528 28.6389 54.7882 27.8649 54.199 27.664C53.6484 27.4764 53.0354 27.4658 52.5 27.6345ZM56.9224 27.7541L56.6667 28.0098V31.6652V35.3206L56.9224 35.5763C57.2606 35.9146 57.7394 35.9146 58.0776 35.5763C58.324 35.33 58.3333 35.2689 58.3333 33.9095V32.4986H58.9398C59.8445 32.4986 60.4402 32.2542 60.9686 31.6664C61.9373 30.589 61.9069 29.2941 60.889 28.2761C60.2307 27.6179 59.8395 27.4984 58.3426 27.4984C57.245 27.4984 57.1633 27.5131 56.9224 27.7541ZM53.9109 29.4208C54.1646 29.6744 54.1667 29.6926 54.1667 31.6652C54.1667 33.6378 54.1646 33.656 53.9109 33.9095C53.7498 34.0708 53.5362 34.1653 53.3333 34.1653C53.1304 34.1653 52.9169 34.0708 52.7557 33.9095C52.5021 33.656 52.5 33.6378 52.5 31.6652C52.5 29.6926 52.5021 29.6744 52.7557 29.4208C52.9169 29.2596 53.1304 29.1651 53.3333 29.1651C53.5362 29.1651 53.7498 29.2596 53.9109 29.4208ZM59.7443 29.4208C59.9055 29.582 60 29.7955 60 29.9985C60 30.5304 59.606 30.8318 58.9109 30.8318H58.3333V29.9985V29.1651H58.9109C59.3854 29.1651 59.5344 29.2108 59.7443 29.4208ZM56.6667 39.1654V39.9988H50H43.3333V39.1654V38.3321H50H56.6667V39.1654ZM34.0625 44.1656L32.8117 46.6657H30.5204C29.2602 46.6657 28.2292 46.6427 28.2292 46.6146C28.2292 46.5864 28.917 45.4614 29.7577 44.1145L31.2862 41.6655H33.2998H35.3133L34.0625 44.1656ZM41.25 41.735C41.25 41.7731 40.8402 42.8982 40.3394 44.2351L39.4288 46.6657H37.0577H34.6867L35.9375 44.1656L37.1883 41.6655H39.2192C40.3361 41.6655 41.25 41.6968 41.25 41.735ZM46.5202 42.0562C46.4869 42.2711 46.3653 43.2203 46.25 44.1656C46.1347 45.111 46.0131 46.0603 45.9798 46.2751L45.9192 46.6657H43.5846C42.3005 46.6657 41.25 46.6344 41.25 46.5962C41.25 46.5581 41.6598 45.4331 42.1606 44.0961L43.0712 41.6655H44.826H46.5808L46.5202 42.0562ZM51.8131 42.0562C51.8465 42.2711 51.968 43.2203 52.0833 44.1656C52.1986 45.111 52.3202 46.0603 52.3535 46.2751L52.4142 46.6657H50H47.5858L47.6465 46.2751C47.6798 46.0603 47.8014 45.111 47.9167 44.1656C48.032 43.2203 48.1535 42.2711 48.1869 42.0562L48.2475 41.6655H50H51.7525L51.8131 42.0562ZM57.8394 44.0961C58.3402 45.4331 58.75 46.5581 58.75 46.5962C58.75 46.6344 57.6995 46.6657 56.4154 46.6657H54.0808L54.0202 46.2751C53.9869 46.0603 53.8653 45.111 53.75 44.1656C53.6347 43.2203 53.5131 42.2711 53.4798 42.0562L53.4192 41.6655H55.174H56.9287L57.8394 44.0961ZM64.0625 44.1656L65.3133 46.6657H62.9423H60.5713L59.6606 44.2351C59.1598 42.8982 58.75 41.7731 58.75 41.735C58.75 41.6968 59.6639 41.6655 60.7808 41.6655H62.8117L64.0625 44.1656ZM70.2423 44.1145C71.083 45.4614 71.7708 46.5864 71.7708 46.6146C71.7708 46.6427 70.7398 46.6657 69.4796 46.6657H67.1883L65.9375 44.1656L64.6867 41.6655H66.7002H68.7137L70.2423 44.1145ZM32.5 48.9193C32.5 49.2421 32.443 49.6991 32.3733 49.935C32.2043 50.5072 31.3414 51.3701 30.7692 51.5392C29.7925 51.8278 29.0139 51.6243 28.2777 50.8881C27.6873 50.2977 27.5 49.8235 27.5 48.9193V48.3324H30H32.5V48.9193ZM39.1667 48.9193C39.1667 49.8235 38.9794 50.2977 38.389 50.8881C37.8495 51.4276 37.3219 51.6659 36.6667 51.6659C36.0115 51.6659 35.4839 51.4276 34.9444 50.8881C34.354 50.2977 34.1667 49.8235 34.1667 48.9193V48.3324H36.6667H39.1667V48.9193ZM45.8333 48.9193C45.8333 49.8235 45.646 50.2977 45.0556 50.8881C44.5161 51.4276 43.9885 51.6659 43.3333 51.6659C42.6781 51.6659 42.1505 51.4276 41.611 50.8881C41.0206 50.2977 40.8333 49.8235 40.8333 48.9193V48.3324H43.3333H45.8333V48.9193ZM52.5 48.9193C52.5 49.2421 52.443 49.6991 52.3733 49.935C52.2043 50.5072 51.3414 51.3701 50.7692 51.5392C49.7925 51.8278 49.0139 51.6243 48.2777 50.8881C47.6873 50.2977 47.5 49.8235 47.5 48.9193V48.3324H50H52.5V48.9193ZM59.1667 48.9193C59.1667 49.2421 59.1097 49.6991 59.04 49.935C58.8709 50.5072 58.008 51.3701 57.4358 51.5392C56.4592 51.8278 55.6805 51.6243 54.9444 50.8881C54.354 50.2977 54.1667 49.8235 54.1667 48.9193V48.3324H56.6667H59.1667V48.9193ZM65.8333 48.9193C65.8333 49.2421 65.7764 49.6991 65.7067 49.935C65.5376 50.5072 64.6747 51.3701 64.1025 51.5392C63.1258 51.8278 62.3472 51.6243 61.611 50.8881C61.0206 50.2977 60.8333 49.8235 60.8333 48.9193V48.3324H63.3333H65.8333V48.9193ZM72.5 48.9193C72.5 49.2421 72.443 49.6991 72.3733 49.935C72.2043 50.5072 71.3414 51.3701 70.7692 51.5392C69.7925 51.8278 69.0139 51.6243 68.2777 50.8881C67.6873 50.2977 67.5 49.8235 67.5 48.9193V48.3324H70H72.5V48.9193ZM33.7982 52.147C34.0744 52.4116 34.6101 52.775 34.9886 52.9544C35.6097 53.2486 35.774 53.2805 36.6667 53.2805C37.5594 53.2805 37.7236 53.2486 38.3447 52.9544C38.7232 52.775 39.2506 52.4196 39.5166 52.1648L40 51.7016L40.4834 52.1648C40.7494 52.4196 41.2768 52.775 41.6553 52.9544C42.2764 53.2486 42.4406 53.2805 43.3333 53.2805C44.226 53.2805 44.3903 53.2486 45.0114 52.9544C45.3899 52.775 45.9173 52.4196 46.1832 52.1648L46.6667 51.7016L47.1501 52.1648C47.416 52.4196 47.9434 52.775 48.322 52.9544C48.943 53.2486 49.1073 53.2805 50 53.2805C50.8927 53.2805 51.057 53.2486 51.678 52.9544C52.0566 52.775 52.584 52.4196 52.8499 52.1648L53.3333 51.7016L53.8168 52.1648C54.0827 52.4196 54.6101 52.775 54.9886 52.9544C55.6097 53.2486 55.774 53.2805 56.6667 53.2805C57.5594 53.2805 57.7236 53.2486 58.3447 52.9544C58.7232 52.775 59.2506 52.4196 59.5166 52.1648L60 51.7016L60.4834 52.1648C60.7494 52.4196 61.2768 52.775 61.6553 52.9544C62.2764 53.2486 62.4406 53.2805 63.3333 53.2805C64.226 53.2805 64.3903 53.2486 65.0114 52.9544C65.3899 52.775 65.9173 52.4196 66.1832 52.1648L66.6667 51.7016L67.1481 52.163C67.5905 52.5867 68.7272 53.2281 69.0365 53.2283C69.1396 53.2284 69.1667 54.975 69.1667 61.6141V69.9998H65.8333H62.5V64.4128C62.5 60.3306 62.4658 58.7102 62.3733 58.3969C62.2043 57.8247 61.3414 56.9618 60.7692 56.7927C60.1506 56.61 39.8494 56.61 39.2308 56.7927C38.6586 56.9618 37.7957 57.8247 37.6267 58.3969C37.5342 58.7102 37.5 60.3306 37.5 64.4128V69.9998H34.1667H30.8333V61.6386V53.2773L31.3296 53.101C31.952 52.88 32.7412 52.3621 33.0473 51.974C33.1759 51.8109 33.2846 51.6748 33.2886 51.6716C33.2927 51.6685 33.522 51.8823 33.7982 52.147ZM49.1667 64.1663V69.9998H44.1667H39.1667V64.422V58.8441L39.4224 58.5885L39.678 58.3328H44.4224H49.1667V64.1663ZM60.5776 58.5885L60.8333 58.8441V64.422V69.9998H55.8333H50.8333V64.1663V58.3328H55.5776H60.322L60.5776 58.5885ZM46.9224 63.5887C46.699 63.812 46.6667 63.9376 46.6667 64.583C46.6667 65.2283 46.699 65.3539 46.9224 65.5773C47.0835 65.7385 47.2971 65.833 47.5 65.833C47.7029 65.833 47.9165 65.7385 48.0776 65.5773C48.301 65.3539 48.3333 65.2283 48.3333 64.583C48.3333 63.9376 48.301 63.812 48.0776 63.5887C47.9165 63.4274 47.7029 63.3329 47.5 63.3329C47.2971 63.3329 47.0835 63.4274 46.9224 63.5887ZM51.9224 63.5887C51.699 63.812 51.6667 63.9376 51.6667 64.583C51.6667 65.2283 51.699 65.3539 51.9224 65.5773C52.0835 65.7385 52.2971 65.833 52.5 65.833C52.7029 65.833 52.9165 65.7385 53.0776 65.5773C53.301 65.3539 53.3333 65.2283 53.3333 64.583C53.3333 63.9376 53.301 63.812 53.0776 63.5887C52.9165 63.4274 52.7029 63.3329 52.5 63.3329C52.2971 63.3329 52.0835 63.4274 51.9224 63.5887ZM73.0776 71.9223C73.2876 72.1322 73.3333 72.2812 73.3333 72.7557V73.3333H50H26.6667V72.7557C26.6667 72.2812 26.7124 72.1322 26.9224 71.9223L27.178 71.6666H50H72.822L73.0776 71.9223Z" fill="#151A32"/>
</svg>
