<svg width="70" height="70" viewBox="0 0 70 70" fill="none" xmlns="http://www.w3.org/2000/svg">
<circle cx="35" cy="35" r="35" fill="#FF6F61"/>
<path fill-rule="evenodd" clip-rule="evenodd" d="M38.0829 15.2058C37.753 15.3797 36.631 15.9933 32.3796 18.3246C24.9567 22.3948 22.5221 23.7613 22.4203 23.9146C22.3159 24.0718 22.2948 24.799 22.2609 29.4074L22.2219 34.7189L21.7921 34.8647C21.1005 35.0995 20.1116 35.6193 19.4188 36.1123C16.2936 38.3358 14.6141 42.1099 15.0754 45.8726C15.2304 47.1365 15.8019 48.9023 16.2092 49.376C16.3545 49.5448 16.4543 49.5829 16.7523 49.5829C17.0555 49.5829 17.1495 49.5457 17.3061 49.3636C17.5592 49.0693 17.5485 48.7239 17.2655 48.0588C16.0953 45.3083 16.3972 42.2005 18.0816 39.6574C18.49 39.0409 19.5 37.9911 20.1445 37.5134C24.0896 34.5889 29.7474 35.4925 32.5918 39.5011C34.7853 42.5925 34.7444 46.8228 32.4916 49.8632C31.9994 50.5275 30.9558 51.5263 30.309 51.9522C27.7952 53.6071 24.6728 53.9024 21.9485 52.7429C21.2835 52.4598 20.9382 52.4491 20.644 52.7022C20.4619 52.8589 20.4247 52.9529 20.4247 53.2561C20.4247 53.7137 20.5947 53.8758 21.4463 54.2304C23.2269 54.9718 25.5157 55.1987 27.3789 54.8184C30.4405 54.1935 33.0977 52.2361 34.5486 49.5372C34.7308 49.1982 34.9151 48.9208 34.9581 48.9207C35.001 48.9206 35.7746 49.3275 36.6771 49.8247C37.5795 50.322 38.4273 50.7474 38.5611 50.7701C38.7701 50.8055 39.5474 50.4032 44.1088 47.8991C47.0262 46.2975 50.5912 44.3418 52.0308 43.5531C53.4705 42.7644 54.7275 42.0292 54.8242 41.9194C54.9998 41.72 55 41.7168 55 38.797C55 35.6542 54.9884 35.5551 54.598 35.3531C54.3254 35.2121 54.1118 35.2121 53.8393 35.3531C53.4538 35.5526 53.4373 35.6788 53.4373 38.4335V40.9928L46.9324 44.5655C43.3547 46.5305 40.2079 48.2607 39.9392 48.4104L39.4509 48.6827L39.4537 41.0048L39.4564 33.327L41.7108 32.0961C42.9508 31.4191 43.9868 30.8652 44.0131 30.8652C44.0394 30.8652 44.0609 31.7989 44.0609 32.9401C44.0609 35.1931 44.0878 35.3566 44.4885 35.5391C44.6012 35.5905 44.7708 35.6316 44.8655 35.6303C45.0627 35.6279 48.4673 33.7714 48.7189 33.5291C48.8104 33.4411 48.9073 33.2584 48.9344 33.1233C48.9614 32.9882 48.9848 31.8006 48.9862 30.4842L48.989 28.0907L51.1366 26.9184C52.3179 26.2736 53.3187 25.7344 53.3608 25.7201C53.4095 25.7035 53.4373 26.4658 53.4373 27.8145C53.4373 30.1168 53.4631 30.276 53.8648 30.4591C54.1342 30.582 54.3353 30.577 54.598 30.4412C54.9885 30.2391 55 30.1407 55 26.9869V24.0538L54.7851 23.8425C54.4924 23.5548 38.8899 15 38.6578 15C38.5562 15 38.2974 15.0926 38.0829 15.2058ZM45.6269 20.5103C49.4218 22.5953 52.5384 24.313 52.5528 24.3274C52.5817 24.3563 48.3855 26.67 48.2361 26.7075C48.1846 26.7204 45.8792 25.4868 43.113 23.9662C40.3468 22.4456 37.2293 20.7326 36.1853 20.1596C35.1412 19.5866 34.3149 19.0908 34.3491 19.0578C34.4625 18.9482 38.5508 16.7207 38.6398 16.72C38.6879 16.7197 41.8321 18.4253 45.6269 20.5103ZM39.5677 23.8011C43.3712 25.8907 46.4826 27.6228 46.4819 27.6502C46.4812 27.6775 46.1102 27.9045 45.6575 28.1544L44.8343 28.6089L37.8851 24.7938C34.063 22.6955 30.9358 20.9612 30.9358 20.9397C30.9356 20.8964 32.5012 20.0163 32.5941 20.0074C32.6261 20.0043 35.7643 21.7115 39.5677 23.8011ZM36.0217 25.5488C39.6482 27.5391 42.7454 29.2435 42.9042 29.3362L43.1929 29.5047L40.996 30.7124C39.7877 31.3767 38.7507 31.9319 38.6914 31.9462C38.612 31.9654 27.5199 25.9385 25.0045 24.5094L24.6939 24.3329L26.8958 23.1108C28.173 22.4021 29.1672 21.8974 29.2629 21.9093C29.3536 21.9206 32.395 23.5584 36.0217 25.5488ZM30.9208 29.545C34.6883 31.613 37.7975 33.3294 37.83 33.3593C37.8624 33.3893 37.88 36.8473 37.869 41.0438L37.8491 48.6738L36.6538 48.0342L35.4585 47.3946L35.5029 47.1211C35.7694 45.4798 35.7913 45.228 35.755 44.2294C35.714 43.1042 35.5728 42.2802 35.2604 41.3429C34.2332 38.2612 31.7471 35.7744 28.6629 34.7435C27.5034 34.356 26.861 34.2648 25.2887 34.2648H23.8237V29.9776C23.8237 26.1027 23.8355 25.6948 23.9471 25.7377C24.0149 25.7638 27.1531 27.477 30.9208 29.545ZM47.4027 30.8033L47.3817 32.5389L46.9129 32.8011C46.6551 32.9453 46.2594 33.1669 46.0339 33.2935L45.6237 33.5237V31.7384V29.9532L46.4246 29.5116C46.865 29.2688 47.2701 29.0695 47.3246 29.0689C47.4024 29.0679 47.4192 29.4414 47.4027 30.8033ZM53.8365 32.2247C53.3755 32.4803 53.3144 33.0243 53.7029 33.413C54.0928 33.8029 54.598 33.7491 54.8699 33.2887C55.2765 32.6002 54.5356 31.8371 53.8365 32.2247ZM21.3521 41.1944C20.7381 41.8033 20.2049 42.3923 20.1671 42.5035C20.0333 42.8983 20.1931 43.1424 21.3221 44.2685C22.4124 45.3557 22.4216 45.3626 22.7766 45.3626C23.2387 45.3626 23.5111 45.0844 23.5111 44.6124C23.5111 44.3491 23.4544 44.2402 23.1451 43.9094L22.7791 43.518L25.3978 43.5416L28.0166 43.5651L28.3982 43.8012C29.4159 44.4308 29.7065 45.5812 29.1068 46.6049C28.9925 46.7999 28.7784 47.0515 28.6308 47.1641C28.1526 47.529 27.7745 47.59 25.993 47.59H24.3586L24.1302 47.8184C23.751 48.1977 23.8301 48.7967 24.2909 49.0351C24.6206 49.2056 27.5789 49.2043 28.2351 49.0334C29.6616 48.6618 30.6918 47.5416 30.9353 46.0975C31.2369 44.3091 29.9838 42.4593 28.1905 42.0459C27.998 42.0015 26.7379 41.9659 25.3171 41.9648L22.7865 41.9629L23.1488 41.5755C23.4584 41.2444 23.5111 41.1413 23.5111 40.8661C23.5111 40.4273 23.1838 40.0873 22.7613 40.0873C22.4892 40.0873 22.3892 40.1657 21.3521 41.1944ZM18.2064 50.7471C17.7454 51.0026 17.6843 51.5467 18.0728 51.9353C18.4628 52.3254 19.0195 52.2613 19.2585 51.7989C19.6231 51.0937 18.8948 50.3655 18.2064 50.7471Z" fill="white"/>
</svg>
