<svg width="70" height="70" viewBox="0 0 70 70" fill="none" xmlns="http://www.w3.org/2000/svg">
<circle cx="35" cy="35" r="35" fill="#FF6F61"/>
<path fill-rule="evenodd" clip-rule="evenodd" d="M51.7502 6.10415C52.8494 6.32165 53.8582 7.15437 54.221 8.14357C54.3374 8.461 55.0268 12.1461 55.753 16.3329L57.0735 23.9452H59.3201H61.5668L62.2491 24.2862C62.9725 24.6477 63.3546 25.025 63.7544 25.7726L64 26.2316V38.4447V50.6578L63.7005 51.2255C63.3503 51.8893 62.766 52.4357 62.0541 52.7651L61.5466 53H39.9675H18.3885L17.7548 52.6888C17.037 52.3363 16.5132 51.7959 16.1699 51.0538C15.9458 50.5694 15.9336 50.347 15.9024 46.1846L15.8697 41.823L15.289 41.9298C14.302 42.1115 13.0878 41.9867 12.5022 41.6435C11.8424 41.2568 11.2459 40.5514 11.0338 39.9068C10.9407 39.6241 9.98093 34.3235 8.90086 28.1277C7.32364 19.0798 6.9505 16.746 7.00503 16.2698C7.15447 14.9649 8.13472 13.8036 9.36545 13.4737C9.76737 13.366 14.8318 12.4553 36.7892 8.54275C48.7751 6.40686 51.1612 5.98671 51.2272 6.00032C51.26 6.00701 51.4953 6.05374 51.7502 6.10415ZM30.3675 11.564C16.575 14.0246 9.64682 15.3051 9.45846 15.4286C9.08387 15.674 8.85369 16.1429 8.85291 16.6619C8.85257 16.895 8.98673 17.875 9.15111 18.8397C9.43214 20.4891 9.46381 20.5904 9.6815 20.54C9.80886 20.5104 13.727 19.8078 18.3885 18.9785C23.05 18.1493 28.3946 17.1976 30.2653 16.8639C48.749 13.5667 53.1864 12.7693 53.2164 12.7393C53.3066 12.649 52.553 8.82382 52.3984 8.58804C52.1746 8.2464 51.586 7.88514 51.2523 7.88459C51.1108 7.88436 41.7126 9.5401 30.3675 11.564ZM31.7151 18.4794C19.9693 20.5721 10.2292 22.3192 10.0704 22.3619L9.78164 22.4394L11.2073 30.6373C11.9913 35.1461 12.6878 39.0235 12.7552 39.2538C12.9738 40.0021 13.6568 40.2538 15.015 40.0865L15.8793 39.9801V33.377C15.8793 26.0547 15.876 26.0929 16.601 25.1432C16.8619 24.8014 17.216 24.5211 17.6789 24.2897L18.3683 23.9452H36.7513C54.9761 23.9452 55.1342 23.9433 55.1342 23.7251C55.1342 23.5356 53.8005 15.7549 53.617 14.8736C53.5638 14.6183 53.5049 14.5688 53.3111 14.6159C53.179 14.6482 43.4609 16.3867 31.7151 18.4794ZM18.6267 25.8835C18.4243 25.9681 18.1498 26.1756 18.0169 26.3447L17.7751 26.6521V38.4147C17.7751 49.3015 17.7893 50.2011 17.9654 50.4994C18.3836 51.2073 16.7914 51.1597 40.0178 51.1597C58.7042 51.1597 61.2054 51.1399 61.4945 50.9905C62.1965 50.6274 62.1599 51.3184 62.1599 38.4193C62.1599 25.4259 62.216 26.4109 61.4499 25.9436C61.1092 25.7359 60.5755 25.7305 40.0476 25.7302C22.4079 25.7298 18.9351 25.7547 18.6267 25.8835ZM57.475 35.58C58.0597 35.7662 58.7519 36.5174 58.9071 37.1341C59.0689 37.7766 59.0772 40.4716 58.9192 41.0409C58.7669 41.5892 58.2066 42.2196 57.6444 42.475C57.2399 42.6588 56.8297 42.6783 53.3395 42.6806C49.5141 42.683 49.4777 42.6809 48.9902 42.4235C48.7199 42.2808 48.3482 41.9505 48.1642 41.6894L47.8297 41.2148L47.7933 39.2999C47.7713 38.1431 47.8046 37.2251 47.8773 36.9808C48.03 36.4674 48.8408 35.7112 49.4071 35.5538C49.9959 35.3903 56.9503 35.4128 57.475 35.58ZM49.692 37.4632C49.6017 37.5535 49.5582 38.0673 49.5582 39.0438C49.5582 40.2335 49.591 40.5267 49.7428 40.6945C49.9139 40.8836 50.1748 40.8985 53.3188 40.8985C55.4432 40.8985 56.7907 40.8553 56.9259 40.783C57.1237 40.6771 57.1415 40.5353 57.1415 39.0728C57.1415 38.1958 57.1081 37.4446 57.0672 37.4037C57.0263 37.3628 55.3803 37.3293 53.4093 37.3293C50.7709 37.3293 49.7906 37.3646 49.692 37.4632ZM58.3489 45.9526C58.6813 46.3066 58.6676 46.8552 58.3175 47.2052L58.0439 47.479H55.1083C51.932 47.479 51.7893 47.454 51.5629 46.8586C51.4375 46.5287 51.6237 45.954 51.9045 45.8037C52.023 45.7402 53.3645 45.6945 55.1074 45.6945C58.0979 45.6945 58.107 45.6951 58.3489 45.9526ZM48.3234 45.9884C48.6363 46.3861 48.6194 46.8666 48.2808 47.2052L48.0071 47.479H45.0382H42.0692L41.7302 47.14C41.4465 46.8562 41.4025 46.7424 41.4603 46.4429C41.6026 45.7062 41.659 45.6945 45.0459 45.6945H48.0923L48.3234 45.9884ZM38.2866 45.9884C38.5479 46.3205 38.5772 46.6012 38.3881 46.9566C38.119 47.4618 38.0525 47.4718 34.9159 47.4755L31.9275 47.479L31.654 47.1839C31.3196 46.823 31.3039 46.3796 31.6117 45.9884L31.8428 45.6945H34.9492H38.0555L38.2866 45.9884ZM28.1337 45.8897C28.263 45.9969 28.3999 46.2459 28.438 46.4429C28.4959 46.7424 28.4518 46.8562 28.1681 47.14L27.8291 47.479H24.8601H21.8912L21.6175 47.2052C21.2553 46.8431 21.2482 46.2692 21.6018 45.9369C21.8537 45.7003 21.9328 45.6945 24.8794 45.6945C27.5911 45.6945 27.9226 45.7143 28.1337 45.8897Z" fill="white"/>
</svg>
